<?xml version="1.0" standalone="no"?>
<!DOCTYPE svg PUBLIC "-//W3C//DTD SVG 20010904//EN"
 "http://www.w3.org/TR/2001/REC-SVG-20010904/DTD/svg10.dtd">
<svg version="1.0" xmlns="http://www.w3.org/2000/svg" width="130.000000pt" height="130.000000pt" viewBox="0 0 130.000000 130.000000" preserveAspectRatio="xMidYMid meet">
<g transform="translate(0.000000,130.000000) scale(0.100000,-0.100000)" fill="#000000" stroke="none">
<path d="M570 1253 c-48 -35 -144 -78 -210 -94 -30 -7 -99 -13 -154 -13 l-98 -1 5 -235 c5 -252 14 -314 63 -436 46 -117 93 -185 193 -284 88 -87 225 -190 237 -178 2 3 3 67 2 143 l-3 138 -62 -52 c-34 -28 -64 -48 -66 -44 -3 5 23 47 58 93 l64 85 -60 10 -60 10 81 99 c44 54 79 101 76 103 -2 2 -52 10 -110 16 l-107 12 117 128 c64 70 115 129 113 131 -2 1 -25 10 -52 20 l-47 18 30 34 30 35 0 144 c0 80 -1 145 -2 145 -2 -1 -19 -12 -38 -27z m-121 -471 c2 -29 -32 -24 -67 11 -30 30 -34 38 -22 51 11 14 17 12 50 -16 21 -18 39 -39 39 -46z m14 -246 c6 -14 -66 -50 -77 -38 -14 13 -4 31 22 40 38 14 49 14 55 -2z"/>
<path d="M662 1114 l3 -166 57 -18 c32 -10 65 -21 75 -24 13 -6 -5 -29 -91 -115 -121 -121 -121 -115 -1 -126 131 -12 131 -4 9 -126 l-107 -107 71 -8 72 -7 -45 -39 -45 -40 0 -164 c0 -90 3 -164 8 -164 15 1 163 107 210 152 146 138 224 281 263 479 15 79 19 143 19 305 l0 205 -53 -6 c-112 -14 -275 26 -384 95 l-63 40 2 -166z m278 -429 c0 -8 -6 -15 -12 -15 -7 0 -23 -3 -35 -6 -17 -5 -23 -2 -23 9 0 15 17 23 53 26 9 0 17 -6 17 -14z m-52 -194 c18 -10 20 -15 12 -32 -10 -18 -13 -19 -38 -4 -59 36 -66 43 -52 60 11 13 16 14 34 2 12 -8 31 -19 44 -26z"/>
</g>
</svg>
