<?xml version="1.0" standalone="no"?>
<!DOCTYPE svg PUBLIC "-//W3C//DTD SVG 20010904//EN"
 "http://www.w3.org/TR/2001/REC-SVG-20010904/DTD/svg10.dtd">
<svg version="1.0" xmlns="http://www.w3.org/2000/svg"
 width="130.000000pt" height="130.000000pt" viewBox="0 0 130.000000 130.000000"
 preserveAspectRatio="xMidYMid meet">
<g transform="translate(0.000000,130.000000) scale(0.100000,-0.100000)"
fill="#000000" stroke="none">
<path d="M531 1258 c-43 -108 -45 -111 -111 -138 -35 -14 -65 -31 -67 -37 -2
-6 22 -21 54 -33 74 -29 77 -33 107 -105 13 -32 28 -61 33 -62 5 -2 22 28 37
66 l27 70 70 27 c38 15 68 32 66 37 -2 6 -33 22 -69 36 l-67 25 -26 68 c-28
72 -40 82 -54 46z m77 -162 c40 -11 40 -19 0 -31 -25 -8 -35 -18 -42 -42 -12
-42 -22 -42 -30 2 -6 29 -12 35 -41 41 -43 8 -45 20 -4 29 17 4 32 12 34 18 3
7 10 26 16 42 l11 30 12 -40 c9 -32 18 -41 44 -49z"/>
<path d="M1078 1209 c-9 -20 -18 -45 -22 -56 -4 -12 -29 -30 -64 -45 l-57 -25
56 -26 c52 -23 58 -30 75 -76 10 -28 21 -51 25 -51 4 0 17 24 29 54 20 50 26
56 71 72 27 10 48 22 46 27 -2 6 -23 18 -47 27 -48 19 -51 22 -79 90 l-18 45
-15 -36z m60 -115 l27 -10 -30 -14 c-16 -8 -32 -26 -36 -40 -6 -26 -8 -24 -24
25 -2 8 -13 15 -24 15 -30 0 -34 17 -5 24 17 5 29 18 37 39 l11 32 9 -31 c6
-20 18 -34 35 -40z"/>
<path d="M800 921 c-17 -11 -749 -743 -761 -763 -18 -28 -7 -56 39 -101 30
-29 57 -47 71 -47 26 0 25 -1 503 485 152 154 278 289 282 301 8 26 -28 80
-73 111 -38 26 -40 26 -61 14z m50 -81 c11 -11 20 -28 20 -37 0 -26 -160 -183
-186 -183 -28 0 -57 34 -50 58 8 23 169 182 185 182 6 0 20 -9 31 -20z"/>
<path d="M1061 709 c-21 -55 -27 -62 -70 -80 -94 -39 -92 -34 -20 -67 65 -29
67 -32 90 -91 13 -34 27 -61 30 -61 4 0 18 28 32 63 24 61 26 62 86 85 34 13
61 27 61 32 0 5 -27 19 -60 32 -58 22 -61 25 -84 83 -13 32 -28 61 -32 62 -5
2 -20 -24 -33 -58z m80 -104 c37 -8 37 -21 0 -28 -22 -5 -31 -13 -36 -37 -7
-32 -25 -32 -25 1 0 14 -12 25 -37 36 l-38 16 33 9 c18 5 35 15 37 23 16 49
18 50 28 18 7 -23 17 -34 38 -38z"/>
</g>
</svg>
