<?xml version="1.0" standalone="no"?>
<!DOCTYPE svg PUBLIC "-//W3C//DTD SVG 20010904//EN"
 "http://www.w3.org/TR/2001/REC-SVG-20010904/DTD/svg10.dtd">
<svg version="1.0" xmlns="http://www.w3.org/2000/svg"
 width="130.000000pt" height="130.000000pt" viewBox="0 0 130.000000 130.000000"
 preserveAspectRatio="xMidYMid meet">
<g transform="translate(0.000000,130.000000) scale(0.100000,-0.100000)"
fill="#000000" stroke="none">
<path d="M545 1071 c-74 -150 -100 -192 -117 -196 -13 -2 -102 -16 -198 -30
-211 -30 -220 -32 -220 -48 0 -6 69 -79 155 -162 l156 -150 -37 -208 c-27
-159 -33 -212 -24 -220 8 -9 59 12 206 88 l194 100 196 -99 c146 -74 198 -96
206 -88 9 9 3 64 -25 219 l-36 208 149 146 c140 136 168 173 138 184 -7 3
-105 18 -218 35 -113 17 -206 34 -208 38 -2 4 -44 88 -95 187 -58 114 -98 181
-109 183 -13 3 -39 -40 -113 -187z"/>
</g>
</svg>
