<?xml version="1.0" standalone="no"?>
<!DOCTYPE svg PUBLIC "-//W3C//DTD SVG 20010904//EN"
 "http://www.w3.org/TR/2001/REC-SVG-20010904/DTD/svg10.dtd">
<svg version="1.0" xmlns="http://www.w3.org/2000/svg"
 width="512.000000pt" height="512.000000pt" viewBox="0 0 512.000000 512.000000"
 preserveAspectRatio="xMidYMid meet">
<g transform="translate(0.000000,512.000000) scale(0.100000,-0.100000)"
fill="#000000" stroke="none">
<path d="M1810 5071 c-425 -140 -829 -394 -1106 -698 -141 -155 -181 -205
-267 -335 -224 -335 -367 -722 -418 -1128 -20 -156 -17 -518 5 -660 89 -583
327 -1062 729 -1469 412 -417 925 -669 1527 -752 122 -17 473 -17 610 0 743
92 1402 485 1826 1091 166 238 291 503 374 799 35 126 35 172 -2 224 -24 33
-89 66 -131 67 -43 0 -95 -26 -177 -89 -312 -241 -660 -373 -1056 -401 -379
-28 -773 67 -1104 263 -730 434 -1088 1294 -884 2125 64 261 150 438 349 720
38 53 45 71 45 109 0 66 -37 125 -95 152 -60 28 -90 26 -225 -18z"/>
</g>
</svg>
