<?xml version="1.0" standalone="no"?>
<!DOCTYPE svg PUBLIC "-//W3C//DTD SVG 20010904//EN"
 "http://www.w3.org/TR/2001/REC-SVG-20010904/DTD/svg10.dtd">
<svg version="1.0" xmlns="http://www.w3.org/2000/svg"
 width="130.000000pt" height="130.000000pt" viewBox="0 0 130.000000 130.000000"
 preserveAspectRatio="xMidYMid meet">
<g transform="translate(0.000000,130.000000) scale(0.100000,-0.100000)"
fill="#000000" stroke="none">
<path d="M442 1130 c-52 -32 -72 -74 -72 -155 l0 -71 -77 -38 c-106 -52 -169
-102 -194 -152 -18 -39 -19 -45 -5 -78 32 -76 187 -146 432 -195 l139 -27 3
-52 c2 -29 5 -52 8 -52 15 0 314 216 314 227 0 6 -17 24 -37 38 -164 115 -269
185 -280 185 -9 0 -13 -18 -13 -62 l0 -61 -147 6 c-144 7 -239 23 -269 47 -35
30 -6 73 79 116 l47 24 0 -44 c0 -42 1 -44 38 -50 20 -3 43 -6 50 -6 9 0 12
34 12 139 0 77 3 146 6 155 5 14 38 16 265 16 245 0 259 -1 269 -19 14 -27 14
-735 0 -762 -10 -18 -24 -19 -263 -19 -184 0 -256 3 -265 12 -7 7 -12 36 -12
64 0 29 -3 55 -7 57 -5 3 -27 8 -50 12 l-43 7 0 -79 c0 -60 5 -85 20 -110 37
-61 50 -63 355 -63 310 0 315 1 354 70 20 37 21 50 21 431 0 439 0 440 -69
486 -33 23 -40 23 -305 23 -253 0 -273 -1 -304 -20z"/>
</g>
</svg>
