<?xml version="1.0" standalone="no"?>
<!DOCTYPE svg PUBLIC "-//W3C//DTD SVG 20010904//EN"
 "http://www.w3.org/TR/2001/REC-SVG-20010904/DTD/svg10.dtd">
<svg version="1.0" xmlns="http://www.w3.org/2000/svg"
 width="130.000000pt" height="130.000000pt" viewBox="0 0 130.000000 130.000000"
 preserveAspectRatio="xMidYMid meet">
<g transform="translate(0.000000,130.000000) scale(0.100000,-0.100000)"
fill="#000000" stroke="none">
<path d="M598 943 c-34 -21 -57 -77 -51 -121 3 -18 18 -46 33 -62 32 -34 25
-40 -13 -10 -14 11 -31 36 -37 56 -12 36 -12 36 -58 29 -60 -9 -171 -43 -199
-61 -16 -10 -23 -24 -23 -45 0 -37 27 -51 46 -24 13 17 14 17 14 2 0 -23 27
-21 40 3 8 15 21 20 50 20 21 0 42 -4 45 -10 10 -16 -25 -66 -55 -77 -33 -13
-55 -75 -46 -131 6 -38 -11 -72 -35 -72 -23 0 -41 -25 -37 -52 3 -24 7 -25
118 -14 19 2 45 4 58 5 33 2 62 36 62 73 0 25 -11 42 -60 89 -33 31 -60 61
-60 65 0 12 104 -82 126 -114 l22 -31 38 33 c34 29 37 35 25 50 -7 9 -19 16
-27 16 -19 0 -44 40 -44 72 0 18 8 33 24 44 23 14 28 14 70 -5 38 -16 52 -18
77 -9 16 6 43 8 59 4 35 -6 35 -5 15 35 -13 24 -19 28 -35 19 -10 -5 -29 -10
-42 -9 -23 0 -23 0 2 10 39 16 79 60 86 94 18 99 -102 181 -188 128z m-212
-489 c-9 -8 -16 -20 -16 -26 0 -6 -3 -9 -6 -5 -10 10 7 47 22 47 13 0 13 -2 0
-16z"/>
<path d="M248 917 c-87 -20 -82 -29 12 -20 47 4 124 8 172 8 114 -1 87 15 -35
21 -54 2 -115 -2 -149 -9z"/>
<path d="M280 876 c-116 -25 -209 -92 -231 -166 -11 -35 -10 -45 5 -73 15 -29
16 -29 11 -6 -10 54 33 131 90 161 13 7 10 -1 -11 -23 -40 -43 -54 -71 -54
-107 0 -63 83 -142 149 -142 61 0 67 15 15 35 -25 9 -61 31 -80 47 -62 54 -40
136 52 196 44 30 156 72 189 72 8 0 17 5 20 10 8 14 -86 11 -155 -4z"/>
<path d="M1160 866 c-54 -19 -67 -20 -75 -9 -8 10 -29 1 -102 -47 -89 -58
-127 -91 -89 -77 10 4 60 7 113 7 83 0 95 2 100 18 3 12 28 27 74 42 39 14 69
30 69 38 0 9 -7 11 -22 7 -55 -16 -60 -14 -20 7 41 21 55 39 30 37 -7 0 -42
-11 -78 -23z m-85 -56 c0 -8 -18 -19 -44 -27 -24 -7 -53 -15 -65 -19 -12 -3 2
10 29 30 51 36 80 42 80 16z"/>
<path d="M557 663 c-13 -13 -7 -43 9 -43 13 0 14 -3 5 -14 -10 -12 -3 -19 41
-40 91 -42 153 -43 180 -2 25 37 -5 86 -54 86 l-30 0 23 -21 c21 -18 21 -20 4
-14 -52 18 -55 18 -56 -6 l-1 -24 -7 25 c-4 14 -12 24 -18 23 -6 -1 -19 7 -28
17 -18 20 -55 27 -68 13z"/>
<path d="M138 500 c21 -20 43 -30 64 -30 28 0 26 2 -28 30 -32 16 -61 30 -64
30 -3 -1 10 -14 28 -30z"/>
<path d="M265 473 c-48 -31 -55 -40 -55 -73 0 -19 -2 -22 -10 -10 -7 12 -13
11 -35 -10 -56 -52 0 -93 69 -50 32 19 34 22 23 51 -11 30 -10 33 31 68 23 20
39 40 36 44 -10 10 -15 9 -59 -20z"/>
</g>
</svg>
