<?xml version="1.0" standalone="no"?>
<!DOCTYPE svg PUBLIC "-//W3C//DTD SVG 20010904//EN"
 "http://www.w3.org/TR/2001/REC-SVG-20010904/DTD/svg10.dtd">
<svg version="1.0" xmlns="http://www.w3.org/2000/svg"
 width="130.000000pt" height="130.000000pt" viewBox="0 0 130.000000 130.000000"
 preserveAspectRatio="xMidYMid meet">
<g transform="translate(0.000000,130.000000) scale(0.100000,-0.100000)"
fill="#000000" stroke="none">
<path d="M615 1236 c-10 -15 -15 -43 -14 -80 1 -31 0 -58 -3 -61 -2 -3 -27 7
-54 22 -60 31 -100 27 -110 -12 -8 -34 5 -47 92 -97 l73 -41 3 -100 c2 -54 1
-103 -2 -108 -3 -4 -47 15 -98 44 l-92 52 0 88 c0 103 -9 127 -49 127 -40 0
-49 -16 -53 -88 -2 -34 -6 -62 -10 -62 -4 0 -29 13 -56 29 -70 41 -86 44 -112
23 -36 -29 -21 -65 43 -101 28 -17 59 -34 67 -39 12 -7 3 -15 -38 -36 -59 -30
-80 -62 -63 -94 19 -36 54 -32 133 14 40 24 78 43 85 44 9 0 178 -92 191 -105
4 -3 -179 -105 -190 -105 -5 0 -45 21 -88 46 -81 46 -105 50 -130 19 -23 -28
-3 -62 56 -95 l57 -32 -67 -40 c-74 -44 -84 -58 -68 -94 16 -33 52 -31 119 6
29 17 57 30 63 30 6 0 10 -27 10 -63 0 -67 10 -87 45 -87 43 0 55 29 55 127
l0 91 92 51 c50 28 92 50 94 48 2 -2 6 -149 5 -192 -1 -15 -23 -33 -81 -65
-88 -48 -107 -75 -75 -110 24 -27 48 -25 101 6 25 15 47 24 50 21 3 -3 6 -34
7 -70 2 -73 16 -97 58 -97 38 0 49 24 49 109 l0 71 53 -30 c81 -45 122 -35
115 27 -3 24 -16 35 -85 73 l-82 45 -1 108 c0 59 3 107 6 107 4 0 47 -23 95
-51 l89 -51 0 -87 c0 -96 14 -131 54 -131 38 0 56 30 56 93 0 31 3 57 6 57 4
0 31 -14 60 -31 57 -32 100 -35 117 -8 20 32 0 63 -63 97 -33 18 -60 36 -60
40 1 4 24 21 53 37 63 36 75 73 33 100 -24 16 -28 15 -114 -31 l-88 -48 -94
54 c-106 61 -108 52 20 122 l75 41 85 -46 c77 -41 88 -45 110 -34 28 14 38 51
19 73 -6 8 -33 27 -60 41 l-47 27 51 29 c69 39 87 56 87 82 0 53 -49 59 -127
15 -29 -16 -55 -30 -58 -30 -3 0 -5 26 -5 58 0 64 -18 92 -58 92 -38 0 -52
-36 -52 -131 l0 -87 -87 -49 c-49 -26 -91 -49 -95 -51 -5 -2 -8 45 -8 105 l0
108 83 46 c68 38 83 51 85 73 7 59 -45 73 -113 31 -22 -13 -43 -25 -47 -25 -5
0 -8 30 -8 66 0 36 -5 74 -10 85 -15 28 -65 25 -85 -5z"/>
</g>
</svg>
