<?xml version="1.0" standalone="no"?>
<!DOCTYPE svg PUBLIC "-//W3C//DTD SVG 20010904//EN"
 "http://www.w3.org/TR/2001/REC-SVG-20010904/DTD/svg10.dtd">
<svg version="1.0" xmlns="http://www.w3.org/2000/svg"
 width="130.000000pt" height="130.000000pt" viewBox="0 0 130.000000 130.000000"
 preserveAspectRatio="xMidYMid meet">
<g transform="translate(0.000000,130.000000) scale(0.100000,-0.100000)"
fill="#000000" stroke="none">
<path d="M536 1049 c-59 -66 -106 -125 -104 -129 2 -5 25 -25 53 -44 l49 -36 24 68 c13 37 39 109 58 161 19 51 33 95 31 97 -2 2 -52 -51 -111 -117z"/>
<path d="M670 1151 c0 -8 26 -81 57 -162 l56 -148 31 21 c17 12 41 30 53 41 l22 20 -58 66 c-127 142 -160 175 -161 162z"/>
<path d="M606 979 c-25 -72 -46 -135 -46 -140 0 -5 45 -9 100 -9 55 0 100 2 100 5 0 3 -20 59 -45 124 -25 65 -45 123 -45 129 0 6 -4 13 -9 16 -5 3 -29 -53 -55 -125z"/>
<path d="M404 873 c-3 -15 -17 -68 -31 -116 -14 -49 -23 -90 -21 -91 1 -2 24 -7 51 -10 l47 -7 19 43 c10 24 27 62 38 85 l20 41 -45 34 c-71 52 -71 52 -78 21z"/>
<path d="M850 864 c-25 -20 -48 -39 -53 -43 -4 -4 9 -40 28 -79 19 -40 35 -77 35 -84 0 -7 13 -8 38 -4 20 3 45 6 54 6 14 0 13 13 -14 113 -16 61 -33 115 -37 119 -3 4 -26 -9 -51 -28z"/>
<path d="M508 725 l-38 -85 83 -124 c109 -165 107 -162 112 -151 3 6 44 68 91 139 94 143 92 133 44 239 l-30 67 -113 0 -112 0 -37 -85z"/>
<path d="M352 629 c3 -8 31 -86 63 -174 32 -88 60 -162 63 -165 2 -3 14 8 26 23 l23 28 -35 142 c-20 78 -36 143 -36 143 -1 1 -25 5 -55 9 -44 6 -53 5 -49 -6z"/>
<path d="M893 633 c-36 -5 -30 11 -78 -186 l-27 -109 23 -24 c12 -13 24 -22 26 -21 2 2 32 81 67 175 70 190 71 175 -11 165z"/>
<path d="M746 451 l-77 -120 3 -80 3 -81 45 82 c28 53 55 125 76 201 17 64 30 117 29 117 -1 0 -36 -54 -79 -119z"/>
<path d="M521 449 c25 -97 88 -241 120 -274 5 -5 9 23 9 73 l0 82 -76 115 c-42 63 -78 115 -79 115 -2 0 10 -50 26 -111z"/>
<path d="M505 290 c-10 -11 -16 -21 -14 -23 3 -1 38 -33 78 -72 l73 -70 -43 80 c-62 118 -64 119 -94 85z"/>
<path d="M749 268 c-12 -24 -33 -63 -47 -88 l-26 -45 49 41 c28 23 61 54 74 68 24 25 24 26 6 46 -25 28 -32 26 -56 -22z"/>
</g>
</svg>
