<?xml version="1.0" standalone="no"?>
<!DOCTYPE svg PUBLIC "-//W3C//DTD SVG 20010904//EN"
 "http://www.w3.org/TR/2001/REC-SVG-20010904/DTD/svg10.dtd">
<svg version="1.0" xmlns="http://www.w3.org/2000/svg"
 width="130.000000pt" height="130.000000pt" viewBox="0 0 130.000000 130.000000"
 preserveAspectRatio="xMidYMid meet">
<g transform="translate(0.000000,130.000000) scale(0.100000,-0.100000)"
fill="#000000" stroke="none">
<path d="M510 1216 c-203 -46 -370 -213 -424 -423 -50 -193 7 -396 154 -543
116 -116 245 -170 405 -170 162 0 289 53 406 170 118 118 169 239 169 400 0
149 -48 279 -142 385 -53 59 -143 126 -206 152 -100 42 -249 54 -362 29z m60
-108 c13 -25 13 -31 0 -55 -29 -52 -90 -33 -90 27 0 60 61 79 90 28z m-106
-24 c7 -17 -10 -54 -24 -54 -11 0 -40 29 -40 40 0 5 7 15 15 24 17 17 41 12
49 -10z m-66 -42 c4 -29 -26 -42 -44 -18 -17 24 -6 48 20 44 13 -2 22 -12 24
-26z m-60 -40 c3 -19 -1 -23 -15 -20 -10 2 -19 14 -21 26 -3 19 1 23 15 20 10
-2 19 -14 21 -26z m182 -17 c37 -19 60 -52 60 -88 0 -36 -14 -62 -61 -114 -53
-58 -54 -109 -4 -207 50 -100 45 -144 -21 -172 -31 -13 -39 -13 -69 1 -45 22
-65 67 -65 149 0 80 -16 158 -43 211 -40 79 -16 183 51 220 35 19 116 19 152
0z m-215 -25 c0 -22 -29 -18 -33 3 -3 14 1 18 15 15 10 -2 18 -10 18 -18z
m515 -59 c16 -31 12 -66 -10 -86 -44 -40 -99 29 -65 81 19 29 60 32 75 5z m80
-32 c9 -16 8 -24 -5 -39 -29 -32 -66 1 -45 41 14 25 36 24 50 -2z m59 -28 c13
-24 -9 -57 -33 -48 -19 7 -21 38 -4 55 17 17 26 15 37 -7z m51 -50 c0 -11 -5
-23 -11 -27 -15 -9 -33 12 -26 30 9 23 37 20 37 -3z m-83 -18 c19 -9 46 -33
60 -54 35 -53 35 -109 -1 -189 -24 -52 -30 -82 -33 -160 -3 -52 -9 -108 -15
-123 -25 -66 -107 -89 -153 -42 -34 33 -32 69 10 156 21 45 35 89 35 112 0 43
-22 92 -45 100 -23 10 -55 69 -55 104 0 82 111 137 197 96z m113 -28 c0 -19
-20 -29 -32 -17 -8 8 -7 16 2 26 14 17 30 12 30 -9z"/>
</g>
</svg>
