<?xml version="1.0" standalone="no"?>
<!DOCTYPE svg PUBLIC "-//W3C//DTD SVG 20010904//EN"
 "http://www.w3.org/TR/2001/REC-SVG-20010904/DTD/svg10.dtd">
<svg version="1.0" xmlns="http://www.w3.org/2000/svg"
 width="130.000000pt" height="130.000000pt" viewBox="0 0 130.000000 130.000000"
 preserveAspectRatio="xMidYMid meet">
<g transform="translate(0.000000,130.000000) scale(0.100000,-0.100000)"
fill="#000000" stroke="none">
<path d="M702 1112 c-7 -5 -32 -57 -55 -116 l-42 -108 -130 -52 c-180 -73
-191 -79 -299 -183 l-96 -91 0 -110 c0 -122 6 -135 62 -135 45 0 58 24 58 113
l0 76 48 47 c26 26 51 47 54 47 4 0 52 -72 107 -159 56 -87 108 -162 117 -165
31 -12 62 -4 234 63 l174 68 76 -34 c41 -20 97 -44 123 -56 l48 -20 27 20 c22
17 27 28 27 64 l0 44 -85 42 c-47 23 -113 54 -148 69 l-64 28 -46 -18 c-89
-34 -87 -36 -50 38 l32 66 122 0 c142 0 178 10 193 51 11 32 6 54 -17 82 -13
15 -36 17 -187 17 -150 0 -176 -2 -194 -17 -11 -10 -45 -67 -74 -127 l-53
-109 -58 92 c-32 50 -57 93 -55 95 2 1 37 15 76 30 40 15 76 32 79 37 3 6 25
64 50 131 45 126 48 160 14 178 -23 12 -50 13 -68 2z"/>
<path d="M195 1070 c-85 -56 -85 -187 0 -240 66 -41 166 -15 200 50 34 67 6
166 -55 197 -38 19 -110 16 -145 -7z"/>
<path d="M350 292 c-95 -25 -93 -45 4 -67 42 -9 76 -21 76 -25 0 -4 -11 -32
-25 -61 -35 -77 -22 -81 85 -29 l90 44 86 -42 c108 -54 127 -46 84 38 -11 22
-20 43 -20 48 0 5 35 18 78 28 98 24 104 45 17 58 -54 9 -66 7 -135 -19 -131
-49 -196 -44 -230 20 -15 29 -22 29 -110 7z"/>
</g>
</svg>
