<?xml version="1.0" standalone="no"?>
<!DOCTYPE svg PUBLIC "-//W3C//DTD SVG 20010904//EN"
 "http://www.w3.org/TR/2001/REC-SVG-20010904/DTD/svg10.dtd">
<svg version="1.0" xmlns="http://www.w3.org/2000/svg"
 width="130.000000pt" height="130.000000pt" viewBox="0 0 130.000000 130.000000"
 preserveAspectRatio="xMidYMid meet">
<g transform="translate(0.000000,130.000000) scale(0.100000,-0.100000)"
fill="#000000" stroke="none">
<path d="M650 1257 c0 -3 7 -21 15 -40 44 -107 -4 -219 -186 -427 -45 -52
-100 -122 -121 -155 -152 -235 -69 -511 180 -599 l42 -15 -35 36 c-103 106
-77 330 53 443 l47 42 7 -44 c4 -23 21 -77 38 -118 21 -49 32 -93 33 -127 l1
-52 22 20 c13 12 29 35 38 52 l15 32 10 -28 c26 -68 6 -160 -46 -218 l-36 -40
29 7 c107 26 216 121 255 222 29 77 29 195 0 272 -19 52 -74 130 -90 130 -4 0
-15 -25 -25 -55 -9 -30 -19 -55 -21 -55 -2 0 -9 9 -15 19 -7 14 -6 38 5 83 19
83 19 247 0 323 -21 80 -68 165 -124 223 -42 43 -91 81 -91 69z"/>
</g>
</svg>
