<?xml version="1.0" standalone="no"?>
<!DOCTYPE svg PUBLIC "-//W3C//DTD SVG 20010904//EN" "http://www.w3.org/TR/2001/REC-SVG-20010904/DTD/svg10.dtd">
<svg version="1.0" xmlns="http://www.w3.org/2000/svg" width="130.000000pt" height="130.000000pt" viewBox="0 0 130.000000 130.000000" preserveAspectRatio="xMidYMid meet">
<g transform="translate(0.000000,130.000000) scale(0.100000,-0.100000)" fill="#000000" stroke="none">
<path d="M1210 1260 c-30 -11 -101 -33 -158 -50 l-103 -32 -276 -321 c-152 -177 -284 -331 -295 -343 -18 -21 -18 -21 19 -46 l38 -26 66 65 c42 41 71 63 79 58 8 -5 -10 -30 -55 -75 l-68 -68 22 -36 c13 -20 25 -36 28 -36 3 0 159 132 346 293 l342 294 39 129 c22 71 45 148 52 172 15 50 11 51 -76 22z"/>
<path d="M172 534 c-31 -21 -30 -69 3 -90 13 -8 29 -13 35 -9 7 4 29 -9 51 -31 l39 -38 -30 -31 -30 -31 40 -39 40 -39 30 29 30 29 35 -34 c23 -22 35 -43 35 -60 0 -52 60 -78 93 -42 28 30 20 53 -51 163 -67 101 -72 106 -174 172 -58 37 -109 67 -114 67 -5 0 -20 -7 -32 -16z"/>
<path d="M190 255 l-24 -25 39 -40 39 -40 23 22 c13 12 23 27 23 33 0 11 -61 75 -71 75 -3 0 -16 -11 -29 -25z"/>
<path d="M103 172 c-17 -15 -43 -35 -57 -45 -19 -13 -26 -27 -26 -51 0 -42 26 -66 73 -66 29 0 40 6 54 28 9 15 30 42 47 60 l30 32 -34 35 c-19 19 -39 35 -44 35 -6 0 -25 -13 -43 -28z"/>
</g>
</svg>
