<?xml version="1.0" standalone="no"?> <!DOCTYPE svg PUBLIC "-//W3C//DTD SVG 20010904//EN" "http://www.w3.org/TR/2001/REC-SVG-20010904/DTD/svg10.dtd"> <svg version="1.0" xmlns="http://www.w3.org/2000/svg" width="130.000000pt" height="130.000000pt" viewBox="0 0 130.000000 130.000000" preserveAspectRatio="xMidYMid meet"> <g transform="translate(0.000000,130.000000) scale(0.100000,-0.100000)" fill="#d90808" stroke="none"> <path d="M273 1150 c-46 -15 -78 -35 -120 -74 -77 -71 -106 -130 -111 -224 -5 -88 10 -147 52 -206 17 -24 150 -158 296 -298 l265 -255 35 30 c19 16 142 135 273 265 287 284 301 306 295 449 -5 142 -65 237 -186 295 -128 61 -274 39 -379 -56 l-40 -35 -29 30 c-81 84 -231 118 -351 79z"/> </g> </svg>