<?xml version="1.0" standalone="no"?>
<!DOCTYPE svg PUBLIC "-//W3C//DTD SVG 20010904//EN"
 "http://www.w3.org/TR/2001/REC-SVG-20010904/DTD/svg10.dtd">
<svg version="1.0" xmlns="http://www.w3.org/2000/svg"
 width="130.000000pt" height="130.000000pt" viewBox="0 0 130.000000 130.000000"
 preserveAspectRatio="xMidYMid meet">
<g transform="translate(0.000000,130.000000) scale(0.100000,-0.100000)"
fill="#000000" stroke="none">
<path d="M500 1211 c-174 -56 -303 -178 -351 -332 -33 -106 -21 -259 28 -371
15 -36 15 -40 -2 -78 -22 -50 -22 -91 2 -133 15 -25 31 -36 78 -50 121 -37
195 -83 195 -121 0 -43 47 -61 80 -31 15 14 18 14 30 0 16 -19 49 -19 70 0 15
14 18 14 30 0 7 -8 23 -15 35 -15 12 0 28 7 35 15 12 14 15 14 30 0 9 -8 26
-15 37 -15 23 0 53 29 53 52 0 33 91 89 176 108 99 22 140 105 95 190 -18 34
-18 35 5 98 78 207 42 396 -105 543 -69 69 -146 115 -240 143 -73 22 -210 20
-281 -3z m11 -567 c33 -17 62 -72 53 -101 -21 -64 -83 -116 -154 -128 -96 -16
-170 88 -124 176 30 59 156 89 225 53z m421 6 c52 -15 88 -61 88 -113 0 -131
-138 -166 -247 -62 -36 35 -43 48 -43 79 0 30 7 45 34 72 29 29 41 34 83 34
26 0 65 -5 85 -10z m-239 -258 c9 -10 26 -39 37 -65 20 -45 20 -50 6 -73 -19
-28 -51 -31 -78 -8 -16 16 -18 16 -24 0 -12 -32 -84 -11 -84 24 0 31 31 104
52 123 26 22 70 22 91 -1z"/>
</g>
</svg>
