<?xml version="1.0" standalone="no"?>
<!DOCTYPE svg PUBLIC "-//W3C//DTD SVG 20010904//EN"
 "http://www.w3.org/TR/2001/REC-SVG-20010904/DTD/svg10.dtd">
<svg version="1.0" xmlns="http://www.w3.org/2000/svg"
 width="130.000000pt" height="130.000000pt" viewBox="0 0 130.000000 130.000000"
 preserveAspectRatio="xMidYMid meet">
<g transform="translate(0.000000,130.000000) scale(0.100000,-0.100000)"
fill="#000000" stroke="none">
<path d="M1116 1204 c-9 -24 -7 -1107 3 -1122 5 -9 25 -12 57 -10 l49 3 3 573
2 572 -54 0 c-40 0 -55 -4 -60 -16z"/>
<path d="M719 1067 c-46 -31 -67 -93 -48 -144 18 -46 56 -74 110 -80 90 -10
160 79 128 163 -29 78 -122 107 -190 61z"/>
<path d="M555 879 c-12 -6 -26 -18 -32 -27 -112 -173 -173 -279 -173 -301 0
-20 20 -46 85 -107 47 -45 85 -86 85 -91 0 -6 -20 -53 -45 -106 -25 -53 -45
-104 -45 -112 0 -26 47 -65 78 -65 40 0 53 17 122 168 45 96 60 138 54 154 -3
12 -32 46 -62 74 l-56 52 42 53 c23 30 52 66 64 82 l23 27 75 -21 c74 -21 174
-26 248 -13 32 6 32 7 32 64 l0 57 -90 -5 c-117 -6 -202 15 -268 68 -78 61
-97 68 -137 49z"/>
<path d="M207 314 c-76 -96 -117 -155 -117 -171 0 -31 42 -73 73 -73 14 0 34
8 45 18 24 21 225 273 220 275 -2 1 -26 23 -54 50 l-50 47 -117 -146z"/>
</g>
</svg>
