<?xml version="1.0" standalone="no"?>
<!DOCTYPE svg PUBLIC "-//W3C//DTD SVG 20010904//EN"
 "http://www.w3.org/TR/2001/REC-SVG-20010904/DTD/svg10.dtd">
<svg version="1.0" xmlns="http://www.w3.org/2000/svg"
 width="130.000000pt" height="130.000000pt" viewBox="0 0 130.000000 130.000000"
 preserveAspectRatio="xMidYMid meet">
<g transform="translate(0.000000,130.000000) scale(0.100000,-0.100000)"
fill="#000000" stroke="none">
<path d="M510 1216 c-203 -46 -370 -213 -424 -423 -50 -193 7 -396 154 -543
116 -116 245 -170 405 -170 162 0 289 53 406 170 118 118 169 239 169 400 0
149 -48 279 -142 385 -53 59 -143 126 -206 152 -100 42 -249 54 -362 29z m220
-275 c58 -118 66 -130 94 -135 17 -3 86 -13 154 -22 70 -10 122 -22 122 -28 0
-6 -47 -58 -104 -116 l-104 -105 24 -140 c13 -77 24 -143 24 -147 0 -18 -32
-6 -155 58 l-131 68 -126 -67 c-120 -63 -158 -78 -158 -59 0 4 11 71 25 148
l26 139 -112 108 c-62 60 -108 112 -103 117 5 4 65 15 134 24 69 9 135 19 148
21 17 4 37 36 87 135 36 72 71 130 78 130 7 0 41 -58 77 -129z"/>
</g>
</svg>
