<?xml version="1.0" standalone="no"?>
<!DOCTYPE svg PUBLIC "-//W3C//DTD SVG 20010904//EN" "http://www.w3.org/TR/2001/REC-SVG-20010904/DTD/svg10.dtd">
<svg version="1.0" xmlns="http://www.w3.org/2000/svg" width="130.000000pt" height="130.000000pt" viewBox="0 0 130.000000 130.000000" preserveAspectRatio="xMidYMid meet">
<g transform="translate(0.000000,130.000000) scale(0.100000,-0.100000)" fill="#000000" stroke="none">
<path d="M1193 1277 c-40 -11 -73 -23 -73 -27 0 -4 13 -11 30 -16 l29 -9 -122 -129 -123 -130 -66 47 c-126 90 -257 134 -484 161 -139 17 -222 37 -301 72 -31 13 -58 23 -60 21 -2 -3 21 -30 50 -61 l54 -57 94 -345 c52 -189 98 -342 104 -340 14 4 15 -2 -86 365 -49 179 -87 326 -85 328 16 16 397 -87 536 -144 83 -34 180 -89 180 -102 0 -3 -84 -90 -187 -193 -171 -171 -191 -188 -225 -190 -32 -2 -48 -13 -105 -71 l-68 -69 38 6 c28 5 37 4 35 -6 -2 -7 4 -12 13 -12 14 1 15 -4 8 -30 -5 -17 -9 -33 -9 -36 0 -2 32 27 70 65 60 60 70 74 70 105 0 32 15 50 194 229 l194 194 32 -44 c91 -125 171 -344 230 -632 10 -51 17 -93 16 -95 -2 -1 -164 48 -361 109 -240 74 -361 107 -367 101 -7 -7 24 -21 93 -42 57 -18 224 -70 370 -115 l266 -83 48 -51 c26 -28 51 -51 56 -51 4 0 -3 25 -17 57 -32 73 -60 191 -74 323 -26 239 -94 414 -208 533 l-36 37 124 125 c69 69 128 125 132 125 3 0 9 -14 13 -31 4 -17 10 -27 14 -22 9 10 45 143 40 146 -2 2 -37 -6 -76 -16z"/>
</g>
</svg>
