<?xml version="1.0" standalone="no"?>
<!DOCTYPE svg PUBLIC "-//W3C//DTD SVG 20010904//EN"
 "http://www.w3.org/TR/2001/REC-SVG-20010904/DTD/svg10.dtd">
<svg version="1.0" xmlns="http://www.w3.org/2000/svg"
 width="130.000000pt" height="130.000000pt" viewBox="0 0 130.000000 130.000000"
 preserveAspectRatio="xMidYMid meet">
<g transform="translate(0.000000,130.000000) scale(0.100000,-0.100000)"
fill="#000000" stroke="none">
<path d="M510 1216 c-203 -46 -370 -213 -424 -423 -50 -193 7 -396 154 -543
116 -116 245 -170 405 -170 162 0 289 53 406 170 118 118 169 239 169 400 0
149 -48 279 -142 385 -53 59 -143 126 -206 152 -100 42 -249 54 -362 29z m300
-132 c0 -9 -20 -85 -45 -168 -25 -84 -45 -161 -45 -170 0 -16 11 -17 103 -16
129 3 129 3 125 -14 -3 -15 -385 -483 -413 -506 -11 -9 -19 -10 -26 -3 -7 7 6
64 43 184 l54 174 -120 5 c-88 4 -121 8 -121 18 0 7 92 124 205 262 191 232
240 280 240 234z"/>
</g>
</svg>
