<?xml version="1.0" standalone="no"?> <!DOCTYPE svg PUBLIC "-//W3C//DTD SVG 20010904//EN" "http://www.w3.org/TR/2001/REC-SVG-20010904/DTD/svg10.dtd"> <svg version="1.0" xmlns="http://www.w3.org/2000/svg" width="130.000000pt" height="130.000000pt" viewBox="0 0 130.000000 130.000000" preserveAspectRatio="xMidYMid meet"> <g transform="translate(0.000000,130.000000) scale(0.100000,-0.100000)" fill="#2e32c2" stroke="none"> <path d="M577 1128 c-41 -73 -114 -200 -160 -281 -110 -190 -147 -291 -147 -396 0 -167 88 -304 240 -375 45 -21 70 -26 137 -26 134 0 230 49 310 157 130 178 109 349 -83 670 -26 43 -86 147 -134 231 l-87 153 -76 -133z m-117 -503 c10 -12 9 -26 -5 -71 -36 -114 4 -234 91 -276 49 -24 64 -52 41 -75 -44 -44 -180 67 -208 170 -38 138 22 323 81 252z"/> </g> </svg>